<?xml version="1.0" encoding="utf-8"?>
<svg
    version="1.1"
    xmlns="http://www.w3.org/2000/svg"
    viewBox="0 0 256 256"
    width="16"
    height="16"
    preserveAspectRatio="xMidYMid meet"
>
    <style type="text/css">
        .spoke-0{opacity:0.4;}
        .spoke-1{opacity:0.7;}
        .spoke-2{opacity:0.1;}
        .spoke-3{opacity:0;}
        .spoke-4{opacity:0.55;}
        .spoke-5{opacity:0.25;}
        .spoke-6{opacity:0.85;}
    </style>
    <path
        d="M128,84L128,84c-6.1,0-11-4.9-11-11V11c0-6.1,4.9-11,11-11l0,0c6.1,0,11,4.9,11,11v62C139,79.1,134.1,84,128,84z"/>
    <path class="spoke-0" d="M128,256L128,256c-6.1,0-11-4.9-11-11v-62c0-6.1,4.9-11,11-11l0,0c6.1,0,11,4.9,11,11v62
	C139,251.1,134.1,256,128,256z"/>
    <path class="spoke-1" d="M172,128L172,128c0-6.1,4.9-11,11-11h62c6.1,0,11,4.9,11,11l0,0c0,6.1-4.9,11-11,11h-62
	C176.9,139,172,134.1,172,128z"/>
    <path class="spoke-2"
          d="M0,128L0,128c0-6.1,4.9-11,11-11h62c6.1,0,11,4.9,11,11l0,0c0,6.1-4.9,11-11,11H11C4.9,139,0,134.1,0,128z"/>
    <path class="spoke-3" d="M35.7,36.7L35.7,36.7c4.3-4.3,11.3-4.3,15.6,0l43.8,43.8c4.3,4.3,4.3,11.3,0,15.6l0,0c-4.3,4.3-11.3,4.3-15.6,0
	L35.7,52.3C31.5,48,31.5,41,35.7,36.7z"/>
    <path class="spoke-4" d="M159.7,160.7L159.7,160.7c4.3-4.3,11.3-4.3,15.6,0l43.8,43.8c4.3,4.3,4.3,11.3,0,15.6l0,0
	c-4.3,4.3-11.3,4.3-15.6,0l-43.8-43.8C155.4,172,155.4,165,159.7,160.7z"/>
    <path class="spoke-5" d="M96.1,160.7L96.1,160.7c4.3,4.3,4.3,11.3,0,15.6l-43.8,43.8c-4.3,4.3-11.3,4.3-15.6,0l0,0
	c-4.3-4.3-4.3-11.3,0-15.6l43.8-43.8C84.8,156.4,91.8,156.4,96.1,160.7z"/>
    <path class="spoke-6" d="M220.1,36.7L220.1,36.7c4.3,4.3,4.3,11.3,0,15.6l-43.8,43.8c-4.3,4.3-11.3,4.3-15.6,0l0,0
	c-4.3-4.3-4.3-11.3,0-15.6l43.8-43.8C208.8,32.4,215.8,32.4,220.1,36.7z"/>
</svg>
