<?xml version="1.0" encoding="utf-8"?>
<svg
    version="1.1"
    xmlns="http://www.w3.org/2000/svg"
    viewBox="0 0 13.5 16"
    width="16"
    height="16"
    preserveAspectRatio="xMidYMid meet"
>
    <path class="ballot-box" d="M0,3.4h12.6V16H0V3.4z M11.5,14.9V4.5H1.1v10.4H11.5z"/>
    <path class="check" d="M1.8,9.7C1.7,9.6,1.6,9.4,1.5,9.3S1.4,9.1,1.4,9.1s0-0.2,0.1-0.2s0.2-0.1,0.3-0.2S2,8.6,2.2,8.6s0.2,0,0.3,0
			s0.2,0,0.2,0.1s0.1,0.1,0.2,0.2C3.5,9.3,4,9.9,4.4,10.6s0.9,1.3,1.2,1.9c0.7-2,1.6-4,2.6-5.9s2.1-3.7,3.3-5.3
			c0.1-0.2,0.3-0.3,0.5-0.4s0.5-0.1,0.8-0.1c0.1,0,0.2,0,0.2,0.1s0.1,0.1,0.1,0.2s0,0.1,0,0.2s-0.1,0.1-0.1,0.2
			C12.4,2.1,11.8,3,11.2,4S10,5.9,9.4,7s-1.1,2.1-1.6,3.3s-1,2.4-1.4,3.6c0,0,0,0.1-0.1,0.1S6.3,14,6.2,14s-0.2,0-0.3,0
			s-0.2,0-0.3,0c-0.1,0-0.3,0-0.4,0S5.1,14,5,13.9c-0.3-0.5-0.5-0.9-0.8-1.3s-0.5-0.7-0.7-1S3,11,2.8,10.7S2.2,10,1.8,9.7z"/>
</svg>
